HIERARCHY
ROOT Hips
{
	OFFSET 0.000000 100.481300 0.000000
	CHANNELS 6 Xposition Yposition Zposition Xrotation Yrotation Zrotation
	JOINT Spine
	{
		OFFSET -0.279200 12.230698 -2.892100
		CHANNELS 3 Xrotation Yrotation Zrotation
		JOINT Spine1
		{
			OFFSET -0.325700 14.269203 -3.374200
			CHANNELS 3 Xrotation Yrotation Zrotation
			JOINT Spine2
			{
				OFFSET -0.372300 16.307602 -0.352600
				CHANNELS 3 Xrotation Yrotation Zrotation
				JOINT Neck
				{
					OFFSET -0.418800 17.814194 8.416900
					CHANNELS 3 Xrotation Yrotation Zrotation
					JOINT Head
					{
						OFFSET 0.000000 7.031097 3.806800
						CHANNELS 3 Xrotation Yrotation Zrotation
						JOINT HeadTop_End
						{
							OFFSET 0.000000 24.646606 12.978600
							CHANNELS 3 Xrotation Yrotation Zrotation
							End Site
							{
								OFFSET 0.000000 27.854965 0.000000
							}
						}
					}
				}
				JOINT LeftShoulder
				{
					OFFSET 16.952999 14.495407 -7.737500
					CHANNELS 3 Xrotation Yrotation Zrotation
					JOINT LeftArm
					{
						OFFSET 9.308998 -2.777710 0.208600
						CHANNELS 3 Xrotation Yrotation Zrotation
						JOINT LeftForeArm
						{
							OFFSET 29.972298 0.000000 0.000000
							CHANNELS 3 Xrotation Yrotation Zrotation
							JOINT LeftHand
							{
								OFFSET 26.026505 0.000000 0.000000
								CHANNELS 3 Xrotation Yrotation Zrotation
								JOINT LeftHandThumb1
								{
									OFFSET 12.240501 -7.147949 9.207150
									CHANNELS 3 Xrotation Yrotation Zrotation
									JOINT LeftHandThumb2
									{
										OFFSET 4.138618 -2.389435 2.389433
										CHANNELS 3 Xrotation Yrotation Zrotation
										JOINT LeftHandThumb3
										{
											OFFSET 2.726913 -1.574387 1.574386
											CHANNELS 3 Xrotation Yrotation Zrotation
											JOINT LeftHandThumb4
											{
												OFFSET 3.941010 -2.275345 2.275342
												CHANNELS 3 Xrotation Yrotation Zrotation
												End Site
												{
													OFFSET -0.005798 5.087799 0.009903
												}
											}
										}
									}
								}
								JOINT LeftHandIndex1
								{
									OFFSET 24.424698 -1.985611 5.953459
									CHANNELS 3 Xrotation Yrotation Zrotation
									JOINT LeftHandIndex2
									{
										OFFSET 6.426697 0.000000 0.000000
										CHANNELS 3 Xrotation Yrotation Zrotation
										JOINT LeftHandIndex3
										{
											OFFSET 5.337898 0.000000 0.000000
											CHANNELS 3 Xrotation Yrotation Zrotation
											JOINT LeftHandIndex4
											{
												OFFSET 4.409401 0.000000 0.000000
												CHANNELS 3 Xrotation Yrotation Zrotation
												End Site
												{
													OFFSET 0.000000 4.409363 0.014373
												}
											}
										}
									}
								}
								JOINT LeftHandMiddle1
								{
									OFFSET 23.810104 0.000000 0.000000
									CHANNELS 3 Xrotation Yrotation Zrotation
									JOINT LeftHandMiddle2
									{
										OFFSET 7.176498 0.000000 0.000000
										CHANNELS 3 Xrotation Yrotation Zrotation
										JOINT LeftHandMiddle3
										{
											OFFSET 6.774902 0.000000 0.000000
											CHANNELS 3 Xrotation Yrotation Zrotation
											JOINT LeftHandMiddle4
											{
												OFFSET 5.403328 0.000000 0.000000
												CHANNELS 3 Xrotation Yrotation Zrotation
												End Site
												{
													OFFSET -0.027702 5.403244 0.017414
												}
											}
										}
									}
								}
								JOINT LeftHandRing1
								{
									OFFSET 22.908401 -0.839279 -6.020567
									CHANNELS 3 Xrotation Yrotation Zrotation
									JOINT LeftHandRing2
									{
										OFFSET 6.337502 0.000000 0.000000
										CHANNELS 3 Xrotation Yrotation Zrotation
										JOINT LeftHandRing3
										{
											OFFSET 5.779297 0.000000 0.000000
											CHANNELS 3 Xrotation Yrotation Zrotation
											JOINT LeftHandRing4
											{
												OFFSET 4.965698 0.000000 0.000000
												CHANNELS 3 Xrotation Yrotation Zrotation
												End Site
												{
													OFFSET 0.000000 4.965668 0.016186
												}
											}
										}
									}
								}
								JOINT LeftHandPinky1
								{
									OFFSET 20.037003 -1.530319 -10.950146
									CHANNELS 3 Xrotation Yrotation Zrotation
									JOINT LeftHandPinky2
									{
										OFFSET 5.254700 0.000000 0.000000
										CHANNELS 3 Xrotation Yrotation Zrotation
										JOINT LeftHandPinky3
										{
											OFFSET 4.810204 0.000000 0.000000
											CHANNELS 3 Xrotation Yrotation Zrotation
											JOINT LeftHandPinky4
											{
												OFFSET 3.647202 0.000000 0.000000
												CHANNELS 3 Xrotation Yrotation Zrotation
												End Site
												{
													OFFSET 0.000000 3.647186 0.011889
												}
											}
										}
									}
								}
							}
						}
					}
				}
				JOINT RightShoulder
				{
					OFFSET -15.141001 14.495407 -7.737500
					CHANNELS 3 Xrotation Yrotation Zrotation
					JOINT RightArm
					{
						OFFSET -9.308998 -2.777710 0.208500
						CHANNELS 3 Xrotation Yrotation Zrotation
						JOINT RightForeArm
						{
							OFFSET -29.972300 0.000000 0.000000
							CHANNELS 3 Xrotation Yrotation Zrotation
							JOINT RightHand
							{
								OFFSET -26.026505 0.000000 0.000000
								CHANNELS 3 Xrotation Yrotation Zrotation
								JOINT RightHandThumb1
								{
									OFFSET -12.240601 -7.148026 9.207092
									CHANNELS 3 Xrotation Yrotation Zrotation
									JOINT RightHandThumb2
									{
										OFFSET -4.138618 -2.389435 2.389433
										CHANNELS 3 Xrotation Yrotation Zrotation
										JOINT RightHandThumb3
										{
											OFFSET -2.726974 -1.574417 1.574421
											CHANNELS 3 Xrotation Yrotation Zrotation
											JOINT RightHandThumb4
											{
												OFFSET -3.941010 -2.275345 2.275343
												CHANNELS 3 Xrotation Yrotation Zrotation
												End Site
												{
													OFFSET 0.005814 5.087799 0.009927
												}
											}
										}
									}
								}
								JOINT RightHandIndex1
								{
									OFFSET -24.424698 -1.985657 5.953444
									CHANNELS 3 Xrotation Yrotation Zrotation
									JOINT RightHandIndex2
									{
										OFFSET -6.426697 0.000000 0.000000
										CHANNELS 3 Xrotation Yrotation Zrotation
										JOINT RightHandIndex3
										{
											OFFSET -5.337898 0.000000 0.000000
											CHANNELS 3 Xrotation Yrotation Zrotation
											JOINT RightHandIndex4
											{
												OFFSET -4.409401 0.000000 0.000000
												CHANNELS 3 Xrotation Yrotation Zrotation
												End Site
												{
													OFFSET 0.000000 4.409363 0.014408
												}
											}
										}
									}
								}
								JOINT RightHandMiddle1
								{
									OFFSET -23.810097 0.000000 0.000000
									CHANNELS 3 Xrotation Yrotation Zrotation
									JOINT RightHandMiddle2
									{
										OFFSET -7.176498 0.000000 0.000000
										CHANNELS 3 Xrotation Yrotation Zrotation
										JOINT RightHandMiddle3
										{
											OFFSET -6.774902 0.000000 0.000000
											CHANNELS 3 Xrotation Yrotation Zrotation
											JOINT RightHandMiddle4
											{
												OFFSET -5.403328 0.000000 0.000000
												CHANNELS 3 Xrotation Yrotation Zrotation
												End Site
												{
													OFFSET 0.027702 5.403244 0.017457
												}
											}
										}
									}
								}
								JOINT RightHandRing1
								{
									OFFSET -22.908302 -0.839325 -6.020576
									CHANNELS 3 Xrotation Yrotation Zrotation
									JOINT RightHandRing2
									{
										OFFSET -6.337502 0.000000 0.000000
										CHANNELS 3 Xrotation Yrotation Zrotation
										JOINT RightHandRing3
										{
											OFFSET -5.779297 0.000000 0.000000
											CHANNELS 3 Xrotation Yrotation Zrotation
											JOINT RightHandRing4
											{
												OFFSET -4.965698 0.000000 0.000000
												CHANNELS 3 Xrotation Yrotation Zrotation
												End Site
												{
													OFFSET 0.000000 4.965668 0.016226
												}
											}
										}
									}
								}
								JOINT RightHandPinky1
								{
									OFFSET -20.037003 -1.530334 -10.950259
									CHANNELS 3 Xrotation Yrotation Zrotation
									JOINT RightHandPinky2
									{
										OFFSET -5.254700 0.000000 0.000000
										CHANNELS 3 Xrotation Yrotation Zrotation
										JOINT RightHandPinky3
										{
											OFFSET -4.810204 0.000000 0.000000
											CHANNELS 3 Xrotation Yrotation Zrotation
											JOINT RightHandPinky4
											{
												OFFSET -3.647202 0.000000 0.000000
												CHANNELS 3 Xrotation Yrotation Zrotation
												End Site
												{
													OFFSET 0.000000 3.647186 0.011917
												}
											}
										}
									}
								}
							}
						}
					}
				}
			}
		}
	}
	JOINT LeftUpLeg
	{
		OFFSET 15.427100 -6.655098 0.678600
		CHANNELS 3 Xrotation Yrotation Zrotation
		JOINT LeftLeg
		{
			OFFSET 4.081073 -39.591068 13.024000
			CHANNELS 3 Xrotation Yrotation Zrotation
			JOINT LeftFoot
			{
				OFFSET -4.081074 -37.707932 -15.979700
				CHANNELS 3 Xrotation Yrotation Zrotation
				JOINT LeftToeBase
				{
					OFFSET 5.346399 -15.068900 20.645000
					CHANNELS 3 Xrotation Yrotation Zrotation
					JOINT LeftToe_End
					{
						OFFSET 2.754700 0.931300 11.300900
						CHANNELS 3 Xrotation Yrotation Zrotation
						End Site
						{
							OFFSET 0.000000 11.669021 0.000000
						}
					}
				}
			}
		}
	}
	JOINT RightUpLeg
	{
		OFFSET -15.569500 -6.655098 0.678600
		CHANNELS 3 Xrotation Yrotation Zrotation
		JOINT RightLeg
		{
			OFFSET -4.081825 -39.591045 13.023800
			CHANNELS 3 Xrotation Yrotation Zrotation
			JOINT RightFoot
			{
				OFFSET 4.081824 -37.707954 -15.979600
				CHANNELS 3 Xrotation Yrotation Zrotation
				JOINT RightToeBase
				{
					OFFSET -5.346400 -15.068900 20.645000
					CHANNELS 3 Xrotation Yrotation Zrotation
					JOINT RightToe_End
					{
						OFFSET -2.754700 0.931300 11.300900
						CHANNELS 3 Xrotation Yrotation Zrotation
						End Site
						{
							OFFSET 0.000000 11.669021 0.000000
						}
					}
				}
			}
		}
	}
}
MOTION
Frames: 4
Frame Time: 0.033333
-0.014759 94.778778 2.567612 -4.450232 5.267651 -5.516668 -0.611221 0.383181 -1.925467 -1.173046 0.557667 0.396045 -1.166440 0.581032 0.393964 -4.478082 -0.857378 1.661422 12.864841 -0.939065 -7.377311 -0.000000 -0.000000 -0.000000 2.161711 -5.106371 2.403674 18.374058 -53.803033 -53.533636 -0.000004 -22.734795 -0.000007 -32.724782 26.373087 -7.354501 -1.563289 -5.616398 4.764001 3.156281 -1.253079 -0.005226 -1.050137 -3.123707 2.041052 -0.000002 -0.000001 0.000000 0.066541 0.956925 -7.955709 0.064828 0.944550 -7.852101 0.016222 0.473381 -3.925806 -0.000002 -0.000001 -0.000002 0.066275 0.955020 -7.939706 0.065086 0.946459 -7.868089 0.016224 0.473387 -3.925801 -0.000001 -0.000001 -0.000001 0.066541 0.956925 -7.955708 0.064828 0.944550 -7.852100 0.016222 0.473382 -3.925807 0.000001 0.000000 0.000000 0.611406 4.974561 -7.473488 0.055261 -3.110318 -8.358062 0.016222 0.473384 -3.925803 -0.000002 0.000000 0.000003 1.137921 2.151784 -8.966676 -33.768353 44.570311 -27.393210 0.000004 24.589330 0.000008 -61.386633 40.321755 -34.561017 -1.835508 -1.684153 -6.291991 4.966015 -12.149155 -0.469522 -1.103844 -1.615683 -2.282931 -0.000000 0.000000 -0.000001 2.384009 -5.244434 48.867251 2.384018 -5.244433 48.867248 0.622192 -2.879742 24.379023 0.000002 -0.000002 -0.000000 2.384010 -5.244434 48.867248 2.384023 -5.244437 48.867248 0.622189 -2.879741 24.379020 -0.000001 -0.000003 0.000001 2.384013 -5.244448 48.867234 2.384020 -5.244427 48.867248 0.622194 -2.879740 24.379018 -0.000001 0.000001 -0.000002 2.384009 -5.244434 48.867248 2.384025 -5.244443 48.867251 0.622196 -2.879737 24.379016 0.000000 0.000003 -0.000001 -6.596408 -5.190552 12.172247 22.309814 8.014924 0.044608 -9.827595 -1.139247 -8.502509 -0.000622 -0.000001 0.000000 -0.000000 -0.000001 0.000000 -0.890509 -13.318255 2.017439 14.169079 -7.212804 -1.801771 -7.521078 -1.250594 5.231947 -0.037789 0.000002 0.000002 0.000000 0.000000 0.000000 
-0.269851 94.900986 2.650244 -4.256656 5.089547 -5.744157 -0.474991 0.730434 -2.317802 -1.017008 1.310433 0.179059 -1.007396 1.332657 0.183938 -4.753889 -1.185986 2.274723 12.401157 -1.462762 -6.411142 -0.000000 0.000000 -0.000002 2.277834 -5.549846 2.884631 17.045102 -53.712932 -53.800888 -0.000000 -22.829943 0.000006 -32.154608 26.956810 -6.958624 -1.563590 -5.637314 4.760891 3.160348 -1.255278 -0.002770 -1.050959 -3.131585 2.040160 0.000002 -0.000001 0.000001 0.066774 0.958615 -7.969831 0.065014 0.945890 -7.863408 0.016268 0.474061 -3.931443 0.000000 0.000001 -0.000002 0.066516 0.956701 -7.953836 0.065278 0.947811 -7.879375 0.016273 0.474060 -3.931441 -0.000001 0.000000 -0.000000 0.066774 0.958615 -7.969831 0.065012 0.945891 -7.863407 0.016272 0.474063 -3.931436 -0.000000 -0.000000 0.000000 0.612641 4.976105 -7.487696 0.055450 -3.108967 -8.369319 0.016269 0.474052 -3.931456 0.000001 0.000000 -0.000001 1.297727 2.566358 -7.190230 -23.470238 46.290784 -35.736345 0.000004 6.852439 0.000002 -76.262341 39.379657 -17.237898 -1.837912 -2.148095 -6.363719 5.031942 -12.883620 -0.519933 -1.069699 -1.981920 -2.322273 0.000002 0.000000 -0.000000 2.384022 -5.244420 48.867275 2.384009 -5.244433 48.867248 0.622196 -2.879746 24.379023 0.000000 0.000001 0.000001 2.384023 -5.244419 48.867282 2.384012 -5.244437 48.867254 0.622196 -2.879745 24.379028 -0.000000 -0.000000 -0.000001 2.384023 -5.244434 48.867248 2.384017 -5.244428 48.867244 0.622196 -2.879750 24.379018 0.000001 -0.000000 0.000001 2.384022 -5.244420 48.867282 2.384016 -5.244443 48.867254 0.622196 -2.879746 24.379018 0.000000 0.000002 0.000000 -6.593787 -4.871734 12.694053 22.033770 7.900211 -0.017030 -9.746995 -1.190463 -8.654284 -0.000609 0.000001 0.000000 0.000000 -0.000000 -0.000000 -0.370725 -15.027699 2.326294 13.923981 -9.199525 -1.859183 -7.644343 -1.521445 5.792058 -0.063157 -0.000013 0.000001 0.000000 0.000001 0.000000 
-0.710467 95.454796 2.774635 -3.975792 4.776076 -5.434044 -0.057792 1.322877 -3.098585 -0.645603 2.761434 0.072635 -0.647165 2.780732 0.106350 -5.205720 -1.503127 2.826175 11.756473 -2.024242 -5.457156 0.000000 0.000001 0.000001 2.341956 -5.794803 3.447964 13.744090 -54.374207 -55.249335 0.000012 -20.662535 0.000019 -29.927847 25.415224 -7.917258 -1.563785 -5.650430 4.758934 3.161959 -1.256134 -0.001751 -1.051292 -3.134702 2.039837 -0.000001 -0.000002 0.000000 0.067013 0.960299 -7.983900 0.065198 0.947238 -7.874643 0.016312 0.474736 -3.937047 0.000001 -0.000000 -0.000002 0.066749 0.958384 -7.967927 0.065461 0.949143 -7.890644 0.016315 0.474742 -3.937045 0.000001 0.000000 0.000000 0.067013 0.960299 -7.983901 0.065195 0.947238 -7.874642 0.016312 0.474735 -3.937048 0.000001 0.000001 0.000002 0.613861 4.977653 -7.501837 0.055656 -3.107627 -8.380559 0.016318 0.474735 -3.937058 -0.000001 -0.000000 0.000001 1.375604 2.361748 -5.238725 -18.443524 46.239049 -40.860275 -0.000007 0.000014 -0.000001 -80.381703 34.559798 -8.732601 -1.840624 -2.573973 -6.429631 5.092890 -13.567688 -0.566252 -1.038150 -2.323059 -2.358748 -0.000004 0.000000 0.000002 2.384022 -5.244445 48.867244 2.384012 -5.244429 48.867230 0.622194 -2.879737 24.379030 0.000001 0.000001 -0.000001 2.384023 -5.244444 48.867237 2.384015 -5.244435 48.867237 0.622198 -2.879745 24.379033 0.000000 0.000003 0.000001 2.384014 -5.244435 48.867251 2.384015 -5.244447 48.867248 0.622194 -2.879735 24.379027 0.000000 0.000001 0.000001 2.384022 -5.244445 48.867237 2.384017 -5.244439 48.867237 0.622194 -2.879734 24.379030 -0.000000 -0.000001 -0.000001 -5.993307 -4.045492 12.722335 20.175378 7.714735 0.029158 -8.889115 -1.291679 -8.748987 -0.000614 -0.000001 -0.000002 -0.000000 -0.000000 -0.000000 0.241364 -17.411902 2.628653 12.913156 -9.216880 -2.129327 -7.074567 -3.528854 6.339184 -0.098977 -0.000008 0.000002 0.000000 0.000000 -0.000000 
-1.137927 95.863548 2.839423 -3.736682 4.247023 -5.219707 0.332313 1.766804 -3.563849 -0.249908 3.921792 0.013638 -0.269813 3.940285 0.067381 -5.742361 -1.654678 3.152347 10.769395 -2.184341 -4.563114 -0.000000 0.000000 -0.000000 2.367792 -5.891191 3.761049 10.932383 -54.894883 -56.443218 -0.000003 -19.007877 0.000019 -28.599995 23.592648 -8.514585 -1.563878 -5.656361 4.758056 3.161321 -1.255796 -0.002173 -1.051154 -3.133449 2.039998 0.000001 -0.000000 -0.000001 0.067249 0.961973 -7.997928 0.065385 0.948583 -7.885820 0.016363 0.475420 -3.942646 0.000000 0.000000 -0.000001 0.066981 0.960060 -7.981949 0.065651 0.950487 -7.901818 0.016363 0.475420 -3.942647 -0.000000 0.000001 -0.000001 0.067249 0.961973 -7.997927 0.065383 0.948583 -7.885818 0.016360 0.475419 -3.942644 0.000001 0.000000 -0.000001 0.615086 4.979199 -7.515903 0.055853 -3.106296 -8.391754 0.016364 0.475421 -3.942643 0.000000 0.000000 -0.000000 1.343882 1.826873 -3.973355 -16.358846 45.759962 -42.733372 -0.000005 -0.000000 0.000007 -81.106939 29.673791 -5.171631 -1.843475 -2.953326 -6.488350 5.148034 -14.190590 -0.607912 -1.009597 -2.633668 -2.391790 0.000002 0.000003 0.000001 2.384006 -5.244432 48.867237 2.384010 -5.244431 48.867248 0.622199 -2.879750 24.379039 0.000002 0.000001 -0.000000 2.384007 -5.244431 48.867241 2.384018 -5.244435 48.867248 0.622198 -2.879745 24.379035 0.000001 -0.000003 -0.000002 2.384006 -5.244434 48.867237 2.384018 -5.244438 48.867254 0.622199 -2.879745 24.379035 0.000000 -0.000002 -0.000001 2.384006 -5.244432 48.867241 2.384018 -5.244442 48.867248 0.622199 -2.879744 24.379039 0.000003 -0.000000 0.000003 -5.578914 -2.969585 12.829540 18.729579 7.459005 0.131392 -8.241411 -1.378403 -8.897564 -0.000615 -0.000003 -0.000002 -0.000000 -0.000000 -0.000000 0.809668 -19.870246 3.215925 12.009195 -9.277485 -2.531735 -6.757844 -5.016853 6.265318 -0.133885 -0.000016 -0.000002 -0.000000 -0.000002 -0.000000 
